<svg width="25" height="24" viewBox="0 0 25 24" fill="none" xmlns="http://www.w3.org/2000/svg">
<mask id="mask0_693_14354" style="mask-type:alpha" maskUnits="userSpaceOnUse" x="0" y="0" width="25" height="24">
<path d="M0.770264 0H24.7703V24H0.770264V0Z" fill="#D9D9D9"/>
</mask>
<g mask="url(#mask0_693_14354)">
<path d="M5.77026 23.7C5.22026 23.7 4.74943 23.5042 4.35776 23.1125C3.9661 22.7208 3.77026 22.25 3.77026 21.7V7.7C3.77026 7.15 3.9661 6.67917 4.35776 6.2875C4.74943 5.89584 5.22026 5.7 5.77026 5.7H14.6953L12.6953 7.7H5.77026V21.7H19.7703V14.75L21.7703 12.75V21.7C21.7703 22.25 21.5744 22.7208 21.1828 23.1125C20.7911 23.5042 20.3203 23.7 19.7703 23.7H5.77026ZM16.9453 6.275L18.3703 7.675L11.7703 14.275V15.7H13.1703L19.7953 9.075L21.2203 10.475L14.5953 17.1C14.4119 17.2833 14.1994 17.4292 13.9578 17.5375C13.7161 17.6458 13.4619 17.7 13.1953 17.7H10.7703C10.4869 17.7 10.2494 17.6042 10.0578 17.4125C9.8661 17.2208 9.77026 16.9833 9.77026 16.7V14.275C9.77026 14.0083 9.82026 13.7542 9.92026 13.5125C10.0203 13.2708 10.1619 13.0583 10.3453 12.875L16.9453 6.275ZM21.2203 10.475L16.9453 6.275L19.4453 3.775C19.8453 3.375 20.3244 3.175 20.8828 3.175C21.4411 3.175 21.9119 3.375 22.2953 3.775L23.6953 5.2C24.0786 5.58334 24.2703 6.05 24.2703 6.6C24.2703 7.15 24.0786 7.61667 23.6953 8L21.2203 10.475Z" fill="white"/>
</g>
</svg>
