<svg width="20" height="20" viewBox="0 0 20 20" fill="none" xmlns="http://www.w3.org/2000/svg">
<g clip-path="url(#clip0_148510_141)">
<path d="M9.91853 8.37333C9.91853 8.37333 8.39719 8.65777 9.64686 6.16888C10.5524 4.35555 10.4619 2.25777 9.64686 1.15555C8.34285 -0.640005 5.77105 -0.0533378 6.04272 0.977773C6.94829 4.49777 4.90171 5.54666 3.83315 7.75111C2.74647 10.0089 2.87325 13.1911 3.36226 16.0356C3.67015 17.8133 4.46704 20 7.36485 20H11.3855L9.91853 8.37333Z" fill="#FFDD67"/>
<path d="M7.81763 19.5022C4.91983 19.5022 4.26783 17.3156 3.95994 15.5378C3.47093 12.6933 3.38038 10.4356 4.34027 8.12445C5.37262 5.63556 6.45929 5.56445 6.45929 0.62223C6.45929 0.373341 6.60418 0.213341 6.73096 0.106674C6.24196 0.266674 5.97029 0.533341 5.97029 0.94223C5.97029 4.64001 4.88361 5.54667 3.81505 7.7689C2.74648 10.0089 2.87326 13.1911 3.36227 16.0356C3.67016 17.8133 4.46705 20 7.36485 20H11.3856V19.5022H7.79952H7.81763Z" fill="#EBA352"/>
<path d="M14.8991 11.2711H9.91851C8.17983 11.2711 8.17983 8.35556 9.91851 8.35556H14.8991C16.6378 8.35556 16.6378 11.2711 14.8991 11.2711Z" fill="#FFDD67"/>
<path d="M15.2794 10.7911H10.2988C9.12158 10.7911 8.74124 9.47556 9.1578 8.60445C8.23413 9.29778 8.46957 11.2711 9.90036 11.2711H14.881C15.4424 11.2711 15.8227 10.9689 16.022 10.5422C15.8227 10.6844 15.5692 10.7911 15.2794 10.7911Z" fill="#EBA352"/>
<path d="M15.4243 14.1867H9.44759C7.3648 14.1867 7.3648 11.2711 9.44759 11.2711H15.4243C17.5071 11.2711 17.5071 14.1867 15.4243 14.1867Z" fill="#FFDD67"/>
<path d="M15.8952 13.7067H9.9185C8.50583 13.7067 8.05305 12.3911 8.54205 11.52C7.41915 12.2133 7.72704 14.1867 9.44761 14.1867H15.4243C16.0944 14.1867 16.5472 13.8844 16.8008 13.4578C16.5653 13.6 16.2574 13.7067 15.8952 13.7067Z" fill="#EBA352"/>
<path d="M14.8628 17.1022H9.80978C8.05299 17.1022 8.05299 14.1867 9.80978 14.1867H14.8628C16.6196 14.1867 16.6196 17.1022 14.8628 17.1022Z" fill="#FFDD67"/>
<path d="M15.2613 16.6222H10.2083C9.01296 16.6222 8.63263 15.3067 9.04919 14.4356C8.1074 15.1289 8.36096 17.1022 9.80986 17.1022H14.8629C15.4425 17.1022 15.8228 16.8 16.022 16.3733C15.8228 16.5156 15.5692 16.6222 15.2613 16.6222Z" fill="#EBA352"/>
<path d="M14.3196 20H11.0595C9.17596 20 9.17596 17.0844 11.0595 17.0844H14.3196C16.2031 17.0844 16.2031 20 14.3196 20Z" fill="#FFDD67"/>
<path d="M14.7542 19.52H11.4941C10.2263 19.52 9.80978 18.2044 10.2626 17.3333C9.24833 18.0267 9.52 20 11.0776 20H14.3376C14.9534 20 15.3518 19.6978 15.5692 19.2711C15.3518 19.4133 15.0802 19.52 14.7542 19.52Z" fill="#EBA352"/>
</g>
<defs>
<clipPath id="clip0_148510_141">
<rect width="20" height="20" fill="white"/>
</clipPath>
</defs>
</svg>
