<svg width="20" height="21" viewBox="0 0 20 21" fill="none" xmlns="http://www.w3.org/2000/svg">
<mask id="mask0_849_14763" style="mask-type:alpha" maskUnits="userSpaceOnUse" x="0" y="0" width="20" height="21">
<rect y="0.5" width="20" height="20" fill="#D9D9D9"/>
</mask>
<g mask="url(#mask0_849_14763)">
<path d="M6.04138 17.1663C5.77749 17.1663 5.56221 17.0622 5.39555 16.8538C5.22888 16.6455 5.18027 16.4163 5.24971 16.1663L5.83305 13.833H3.97888C3.7011 13.833 3.47888 13.7255 3.31221 13.5105C3.14555 13.295 3.09694 13.0552 3.16638 12.7913C3.20805 12.5969 3.30527 12.4441 3.45805 12.333C3.61082 12.2219 3.78444 12.1663 3.97888 12.1663H6.24971L7.08305 8.83301H4.81221C4.53444 8.83301 4.31221 8.72551 4.14555 8.51051C3.97888 8.29495 3.93027 8.05523 3.99971 7.79134C4.04138 7.5969 4.1386 7.44412 4.29138 7.33301C4.44416 7.2219 4.61777 7.16634 4.81221 7.16634H7.49971L8.18721 4.43717C8.22888 4.25662 8.31916 4.11079 8.45805 3.99967C8.59693 3.88856 8.7636 3.83301 8.95805 3.83301C9.22193 3.83301 9.43721 3.93717 9.60388 4.14551C9.77055 4.35384 9.81916 4.58301 9.74971 4.83301L9.16638 7.16634H12.4997L13.1872 4.43717C13.2289 4.25662 13.3192 4.11079 13.458 3.99967C13.5969 3.88856 13.7636 3.83301 13.958 3.83301C14.2219 3.83301 14.4372 3.93717 14.6039 4.14551C14.7705 4.35384 14.8192 4.58301 14.7497 4.83301L14.1664 7.16634H16.0205C16.2983 7.16634 16.5205 7.27384 16.6872 7.48884C16.8539 7.7044 16.9025 7.94412 16.833 8.20801C16.7914 8.40245 16.6942 8.55523 16.5414 8.66634C16.3886 8.77745 16.215 8.83301 16.0205 8.83301H13.7497L12.9164 12.1663H15.1872C15.465 12.1663 15.6872 12.2738 15.8539 12.4888C16.0205 12.7044 16.0692 12.9441 15.9997 13.208C15.958 13.4025 15.8608 13.5552 15.708 13.6663C15.5553 13.7775 15.3817 13.833 15.1872 13.833H12.4997L11.8122 16.5622C11.7705 16.7427 11.6803 16.8886 11.5414 16.9997C11.4025 17.1108 11.2358 17.1663 11.0414 17.1663C10.7775 17.1663 10.5622 17.0622 10.3955 16.8538C10.2289 16.6455 10.1803 16.4163 10.2497 16.1663L10.833 13.833H7.49971L6.81221 16.5622C6.77055 16.7427 6.68027 16.8886 6.54138 16.9997C6.40249 17.1108 6.23582 17.1663 6.04138 17.1663ZM7.91638 12.1663H11.2497L12.083 8.83301H8.74971L7.91638 12.1663Z" fill="#535AF1"/>
</g>
</svg>
